<svg height="512" viewBox="0 0 64 64" width="512" xmlns="http://www.w3.org/2000/svg"><g id="Filled_outline" data-name="Filled outline"><path d="m36 36-6 6h-27l1 3a4.517 4.517 0 0 0 4 3h45c3.013 0 5.047-2.142 6-5l2-7z" fill="#4481c3"/><path d="m59.857 40 1.143-4h-25l-4 4z" fill="#50b4f8"/><path d="m30 42h-23l2-3-2-3h29z" fill="#195c85"/><path d="m34 36h-24l2-4-2-4h20z" fill="#f9bb4b"/><g fill="#e97424"><path d="m16 31h2v2h-2z"/><path d="m20 31h2v2h-2z"/><path d="m24 31h2v2h-2z"/><path d="m21 28h-10l2-4h6z"/></g><path d="m3.051 45.316a5.482 5.482 0 0 0 4.949 3.684h45c3.212 0 5.745-2.072 6.961-5.725l2-7a1 1 0 0 0 -.961-1.275h-3v-2h2v-2h-27.382l-1.718-3.447a1 1 0 0 0 -.9-.553h-1v-12h-2v12h-2v-3h-2v3h-1.382l-1.718-3.447a1 1 0 0 0 -.9-.553h-6a1 1 0 0 0 -.895.553l-1.723 3.447h-.382a1 1 0 0 0 -.895 1.447l1.777 3.553-1.5 3h-2.382a1 1 0 0 0 -.832 1.555l1.632 2.445-1.335 2h-3.465a1 1 0 0 0 -.949 1.316zm50.949-12.316h2v2h-2zm-4 0h2v2h-2zm-4 0h2v2h-2zm-4 0h2v2h-2zm-4 0h2v2h-2zm21.674 4-.574 2h-24.686l2-2zm-23.674-4v2h-1.382l-1-2zm-22.382-8h4.764l1 2h-6.764zm-.718 6.553-1.282-2.553h17.764l3 6h-20.764l1.282-2.553a1 1 0 0 0 0-.894zm-3.068 6.892-.963-1.445h24.717l-4 4h-20.717l.963-1.445a1 1 0 0 0 0-1.11zm20.168 4.555a1 1 0 0 0 .707-.293l1.707-1.707h26.118l-.481 1.684c-.432 1.297-1.79 4.316-5.051 4.316h-45a3.5 3.5 0 0 1 -3.051-2.316l-.562-1.684z"/><path d="m52 43h2v2h-2z"/><path d="m48 43h2v2h-2z"/><path d="m44 43h2v2h-2z"/><path d="m16 31h2v2h-2z"/><path d="m20 31h2v2h-2z"/><path d="m24 31h2v2h-2z"/></g></svg>